<svg width="24" height="24" viewBox="0 0 24 24" fill="none" xmlns="http://www.w3.org/2000/svg">
<path d="M19 12.0002C19.001 12.6642 18.745 13.2942 18.278 13.7662L14.36 17.8472C14.262 17.9492 14.131 18.0002 14 18.0002C13.875 18.0002 13.751 17.9542 13.653 17.8602C13.454 17.6702 13.448 17.3522 13.639 17.1532L17.562 13.0672C17.725 12.9022 17.844 12.7092 17.917 12.5002H5.5C5.224 12.5002 5 12.2762 5 12.0002C5 11.7242 5.224 11.5002 5.5 11.5002H17.911C17.836 11.2922 17.715 11.1022 17.553 10.9412L13.599 6.89224C13.406 6.69524 13.41 6.37824 13.607 6.18524C13.805 5.99324 14.122 5.99624 14.314 6.19424L18.262 10.2372C18.731 10.6992 18.995 11.3332 19 12.0002Z" fill="white"/>
</svg>
